<svg width="30" height="35" viewBox="0 0 30 35" fill="none" xmlns="http://www.w3.org/2000/svg">
  <path d="M17.4615 22.061C15.1411 19.7304 14.3255 16.4618 14.9984 13.4677C15.0922 13.0581 14.7781 12.6689 14.3581 12.6689H1.64697C0.0810108 12.6689 -0.771293 14.6227 0.949626 15.7327C1.6592 16.1874 3.71859 17.6783 3.71859 17.6783C7.73951 20.5045 10.7328 24.5718 12.2375 29.2617L13.6975 33.8164C13.9095 34.4799 14.5008 35.0001 15.1941 35.0001C15.6998 35.0001 16.2054 34.7708 16.5317 34.3079L22.4611 25.9808C22.8485 25.4361 22.5549 24.6824 21.9065 24.5349C20.2345 24.1499 18.7012 23.3062 17.4574 22.0569L17.4615 22.061Z" fill="white"/>
  <path d="M24.1396 8.80273C23.9479 8.80273 23.7562 8.88056 23.6053 9.02801L20.6202 12.0304C18.6995 13.9596 18.6995 17.1053 20.6202 19.0263C20.7793 19.186 21.077 19.4277 21.1137 19.4563C21.1422 19.4768 21.1626 19.4973 21.1993 19.5096C21.2238 19.5219 21.2523 19.5301 21.289 19.5301C21.4236 19.5301 21.5378 19.4195 21.5378 19.2802C21.5378 19.2515 21.5296 19.227 21.5174 19.1942C21.5052 19.1696 21.4848 19.1328 21.4848 19.1328C20.9057 18.0146 21.0811 16.5892 22.0108 15.6512L23.589 14.066C23.7399 13.9186 23.9357 13.8408 24.1273 13.8408C24.3231 13.8408 24.5188 13.9186 24.6656 14.066L26.2438 15.6512C27.1736 16.5892 27.349 18.0146 26.7699 19.1328C26.7699 19.1328 26.7495 19.1696 26.7373 19.1942C26.725 19.227 26.7169 19.2474 26.7169 19.2802C26.7169 19.4195 26.8351 19.5301 26.9656 19.5301C27.0023 19.5301 27.0309 19.5219 27.0553 19.5096C27.092 19.4932 27.1124 19.4727 27.141 19.4563C27.1818 19.4277 27.4754 19.186 27.6344 19.0263C29.5552 17.1053 29.5552 13.9596 27.6344 12.0304L24.6493 9.02801C24.4984 8.88056 24.3068 8.80683 24.1151 8.80273H24.1396Z" fill="white"/>
  <path d="M16.898 5.16113C16.0416 6.00081 15.0669 6.72169 13.9985 7.29513C13.1951 7.72521 12.3347 8.07336 11.4375 8.32731C12.2694 9.05639 13.3542 9.49876 14.5449 9.49876C15.3442 9.49876 16.1027 9.29806 16.7593 8.9458C16.9714 8.35189 17.0978 7.71701 17.1182 7.05347C17.1182 6.98384 17.1222 6.9142 17.1222 6.84048C17.1222 6.25885 17.0448 5.6977 16.8939 5.16523L16.898 5.16113Z" fill="white"/>
  <path d="M18.8332 2.74023C18.2908 3.62087 17.6383 4.43596 16.9002 5.15685C17.047 5.68933 17.1286 6.25047 17.1286 6.8321C17.1286 6.90173 17.1286 6.97546 17.1245 7.04509C17.1041 7.70864 16.9777 8.34351 16.7656 8.93743C17.7362 8.41724 18.5069 7.56937 18.927 6.53719C19.1513 5.98424 19.2777 5.37803 19.2777 4.74726C19.2777 4.03046 19.1186 3.35053 18.8373 2.74023H18.8332Z" fill="white"/>
  <path d="M15.764 2.93249C14.3122 3.61652 12.7055 4.03431 11.005 4.11623C10.6216 4.13671 10.2424 4.13671 9.86719 4.12442C10.0548 2.67445 10.8948 1.43337 12.0815 0.700195C13.5659 0.982817 14.8627 1.79382 15.7681 2.93249H15.764Z" fill="white"/>
  <path d="M18.0403 1.55237C17.3348 2.08894 16.5723 2.55178 15.7607 2.93271C14.8554 1.79403 13.5586 0.983031 12.0742 0.70041C12.7919 0.258046 13.6402 0 14.5455 0C15.9279 0 17.1758 0.598011 18.0403 1.55237Z" fill="white"/>
  <path d="M18.8325 2.74056C18.2901 3.6212 17.6376 4.43629 16.8995 5.15718C16.6711 4.33389 16.2796 3.58024 15.7617 2.93307C16.5732 2.55215 17.3358 2.08931 18.0413 1.55273C18.3594 1.90499 18.6286 2.30639 18.8325 2.74466V2.74056Z" fill="white"/>
  <path d="M15.7618 2.93262C14.31 3.61664 12.7033 4.03443 11.0028 4.11635C10.6194 4.13683 10.2402 4.13683 9.865 4.12454C9.83645 4.32934 9.82422 4.53414 9.82422 4.74713C9.82422 5.36971 9.94248 5.96773 10.1627 6.51249C10.4441 7.2129 10.8845 7.83139 11.4432 8.3229C12.3403 8.07305 13.2008 7.72489 14.0042 7.29072C15.0726 6.71729 16.0473 5.9964 16.9036 5.15672C16.6753 4.33344 16.2838 3.57978 15.7659 2.93262H15.7618Z" fill="white"/>
</svg>
